# xmcd
#
# Track frame offsets:
#	150
#	16425
#	28370
#	39269
#	55414
#	76154
#	94436
#	112181
#	126716
#	139088
#	149591
#	160846
#
# Disc length: 2287 seconds
#
# Revision: 1
# Processed by: cddbd v1.5.2PL0 Copyright (c) Steve Scherf et al.
# Submitted via: audiograbber 1.80
#
DISCID=b308ed0c
DTITLE=Scott Sharp - Mind Over Matter
DYEAR=1900
DGENRE=
TTITLE0=Ghost Town
TTITLE1=He's got a little Elvis (In his Soul)
TTITLE2=Mind Over Matter
TTITLE3=In Between the Pictures
TTITLE4=Greatest Music Never Heard
TTITLE5=Bayou Banshee
TTITLE6=Irish Angel
TTITLE7=I'm the One (Mama warned you about)
TTITLE8=The Man who wants to love You
TTITLE9=We're all American
TTITLE10=We need a Hero
TTITLE11=Liar Liar
EXTD=
EXTT0=
EXTT1=
EXTT2=
EXTT3=
EXTT4=
EXTT5=
EXTT6=
EXTT7=
EXTT8=
EXTT9=
EXTT10=
EXTT11=
PLAYORDER=
